<?xml version="1.0" encoding="UTF-8"?>
<svg id="Layer_1" xmlns="http://www.w3.org/2000/svg" viewBox="0 0 1557 334.07">
  <path d="M761.19,334.07c-18.11-5.91-37.11-10-54.08-18.28-15.37-7.49-28.52-19.55-42.09-29.2,6.28-7.2,10.74-12.32,15.84-18.16,27.3,28.31,59.43,43.98,98.45,43.94,38.69-.04,70.7-15.2,97.95-43.64,5.47,5.03,10.62,9.77,16.22,14.92-24.33,26.53-53.55,42.44-88.39,48.14-2.96.48-5.84,1.5-8.75,2.27h-35.15Z"/>
  <path d="M110.9,329.07H0V.18h114.18c-3.04,6.12-4.16,12.29-7.86,15.24C46.06,63.52,30.1,127.37,40.54,200.29c6.58,45.94,28.73,83.48,65.1,112.35,5.65,4.49,7.74,9.19,5.26,16.42Z"/>
  <path d="M1446.41,0h110.59v329.05h-110.54c-2.86-7.31-.36-11.89,5.18-16.37,58.66-47.46,74.87-110.46,65.41-182.25-6.17-46.82-28.1-85.13-65.63-114.09-5.77-4.45-7.6-9.26-5-16.34Z"/>
  <path d="M455.83,228.9c-26.24-.09-46.55-20.38-46.41-46.36.13-25.62,21.3-46.06,47.26-45.64,25.7.41,45.9,20.58,46.01,45.94.11,25.56-20.84,46.15-46.86,46.06Z"/>
  <path d="M1102.78,228.9c-26.09.14-47.21-20.29-47.27-45.74-.06-25.44,20.97-46.16,46.88-46.21,25.57-.04,46.18,19.91,46.73,45.23.55,25.31-20.54,46.57-46.34,46.71Z"/>
  <path d="M1306.74,146.25c-22.14-4.32-42.62-8.31-63.99-12.48,2.64-8.08,4.95-15.12,7.52-22.98,19.54,8.16,38.5,16.07,58.88,24.58-2.07-20.45-4.02-39.73-6.06-59.92h25.41c-1.81,19.56-3.58,38.63-5.54,59.79,20.24-8.43,38.98-16.24,58.58-24.41,2.57,7.61,4.94,14.63,7.74,22.92-21.3,4.16-41.76,8.15-64.16,12.52,14.38,15.41,27.81,29.81,42.28,45.32-6.78,4.68-13.14,9.06-20.62,14.22-10.1-17.01-20.01-33.7-30.89-52.04-10.32,17.57-20.1,34.23-30.44,51.84-6.76-4.48-13.19-8.74-20.96-13.88,14.08-15.16,27.71-29.83,42.24-45.47Z"/>
  <path d="M212.01,205.68c-7.13-4.79-13.36-8.98-20.84-14.01,13.89-14.91,27.35-29.37,42.21-45.33-22.16-4.39-42.71-8.46-63.99-12.67,2.72-8.2,5.05-15.24,7.59-22.91,19.65,8.21,38.6,16.13,58.87,24.6-2.08-20.55-4.04-39.87-6.08-60.03h25.31c-1.75,19.4-3.48,38.66-5.39,59.89,20.27-8.46,39.02-16.28,58.59-24.45,2.57,7.75,4.9,14.77,7.63,22.97-21.5,4.2-41.96,8.19-64.11,12.52,14.38,15.39,27.88,29.86,42.23,45.21-6.75,4.73-13.09,9.17-20.56,14.4-10.09-17.05-19.98-33.77-30.82-52.09-10.37,17.56-20.19,34.2-30.62,51.88Z"/>
</svg>